mtllib Boxes2.mtl
# vertices
v -304 -16 -384
v -304 -16 400
v -304 16 400
v -304 16 -384
v 304 16 400
v 304 -16 400
v 304 -16 -384
v 304 16 -384
v -304 288 -384
v -304 288 400
v -304 320 400
v -304 320 -384
v 304 320 400
v 304 288 400
v 304 288 -384
v 304 320 -384
v 48 272 -64
v 48 272 64
v 48 288 64
v 48 288 -64
v 80 288 64
v 80 272 64
v 80 272 -64
v 80 288 -64
v -96 272 -64
v -96 272 64
v -96 288 64
v -96 288 -64
v -80 288 64
v -80 272 64
v -80 272 -64
v -80 288 -64
v -80 272 -80
v -80 272 -64
v -80 288 -64
v -80 288 -80
v 48 288 -64
v 48 272 -64
v 48 272 -80
v 48 288 -80

# texture coordinates
vt 6 -0.25
vt -6.25 -0.25
vt -6.25 0.25
vt 6 0.25
vt 5 0.25
vt -4.5 0.25
vt -4.5 -0.25
vt 5 -0.25
vt 5 -6.25
vt -4.5 -6.25
vt -4.5 6
vt 5 6
vt 6 4.5
vt -6.25 4.5
vt -6.25 5
vt 6 5
vt 5 5
vt -4.5 5
vt -4.5 4.5
vt 5 4.5
vt 1 4.25
vt -1 4.25
vt -1 4.5
vt 1 4.5
vt 1.25 4.5
vt 0.75 4.5
vt 0.75 4.25
vt 1.25 4.25
vt 1.25 -1
vt 0.75 -1
vt 0.75 1
vt 1.25 1
vt -1.25 4.5
vt -1.5 4.5
vt -1.5 4.25
vt -1.25 4.25
vt -1.25 -1
vt -1.5 -1
vt -1.5 1
vt -1.25 1
vt 0.75 0.75
vt -1.25 0.75

# face normals
vn -1 0 -0
vn 0 0 1
vn 0 -1 -0
vn 0 1 -0
vn 0 0 -1
vn 1 0 -0

# objects
o entity0_brush0
usemtl DevWall1
f 1/1/1 2/2/1 3/3/1 4/4/1
usemtl DevWall1
f 5/5/2 3/6/2 2/7/2 6/8/2
usemtl DevFloor1
f 6/9/3 2/10/3 1/11/3 7/12/3
usemtl DevWall1
f 8/12/4 4/11/4 3/10/4 5/9/4
usemtl DevWall1
f 7/8/5 1/7/5 4/6/5 8/5/5
usemtl DevWall1
f 8/4/6 5/3/6 6/2/6 7/1/6

o entity0_brush1
usemtl DevWall1
f 9/13/1 10/14/1 11/15/1 12/16/1
usemtl DevWall1
f 13/17/2 11/18/2 10/19/2 14/20/2
usemtl DevWall1
f 14/9/3 10/10/3 9/11/3 15/12/3
usemtl DevWall1
f 16/12/4 12/11/4 11/10/4 13/9/4
usemtl DevWall1
f 15/20/5 9/19/5 12/18/5 16/17/5
usemtl DevWall1
f 16/16/6 13/15/6 14/14/6 15/13/6

o entity0_brush2
usemtl DevFloor1
f 17/21/1 18/22/1 19/23/1 20/24/1
usemtl DevFloor1
f 21/25/2 19/26/2 18/27/2 22/28/2
usemtl DevFloor1
f 22/29/3 18/30/3 17/31/3 23/32/3
usemtl DevFloor1
f 24/32/4 20/31/4 19/30/4 21/29/4
usemtl DevFloor1
f 23/28/5 17/27/5 20/26/5 24/25/5
usemtl DevFloor1
f 24/24/6 21/23/6 22/22/6 23/21/6

o entity0_brush3
usemtl DevFloor1
f 25/21/1 26/22/1 27/23/1 28/24/1
usemtl DevFloor1
f 29/33/2 27/34/2 26/35/2 30/36/2
usemtl DevFloor1
f 30/37/3 26/38/3 25/39/3 31/40/3
usemtl DevFloor1
f 32/40/4 28/39/4 27/38/4 29/37/4
usemtl DevFloor1
f 31/36/5 25/35/5 28/34/5 32/33/5
usemtl DevFloor1
f 32/24/6 29/23/6 30/22/6 31/21/6

o entity0_brush4
usemtl DevFloor1
f 33/21/1 34/27/1 35/26/1 36/24/1
usemtl DevFloor1
f 37/26/2 35/33/2 34/36/2 38/27/2
usemtl DevFloor1
f 38/41/3 34/42/3 33/40/3 39/31/3
usemtl DevFloor1
f 40/31/4 36/40/4 35/42/4 37/41/4
usemtl DevFloor1
f 39/27/5 33/36/5 36/33/5 40/26/5
usemtl DevFloor1
f 40/24/6 37/26/6 38/27/6 39/21/6

