mtllib NavFloor.mtl
# vertices
v -64 -16 -64
v -64 -16 64
v -64 16 64
v -64 16 -64
v 0 32 -64
v 0 32 64
v 64 -16 64
v 64 -16 -64

# texture coordinates
vt 1 -0.25
vt -1 -0.25
vt -1 0.25
vt 1 0.25
vt 0 1
vt -1 1
vt -1 -1
vt 0 -1
vt 0 0.5
vt 1 -1
vt 1 1
vt 0.70588231086730957 -0.77941179275512695
vt 0.70588231086730957 1.220588207244873
vt -0.29411768913269043 1.220588207244873
vt -0.29411768913269043 -0.77941179275512695

# face normals
vn -1 0 0
vn -0.24253562503633297 0.97014250014533188 -0
vn 0 -0 1
vn 0 -1 -0
vn 0 0 -1
vn 0.59999999999999998 0.80000000000000004 -0

# objects
o entity0_brush0
usemtl DevFloor1
f 1/1/1 2/2/1 3/3/1 4/4/1
usemtl DevFloor1
f 5/5/2 4/6/2 3/7/2 6/8/2
usemtl DevFloor1
f 6/9/3 3/3/3 2/2/3 7/1/3
usemtl DevFloor1
f 7/10/4 2/7/4 1/6/4 8/11/4
usemtl DevFloor1
f 8/1/5 1/2/5 4/3/5 5/9/5
usemtl DevFloor1
f 7/12/6 8/13/6 5/14/6 6/15/6

