mtllib OfficeTest.mtl
# vertices
v -64 -32 -384
v -64 -32 224
v -64 0 224
v -64 0 -384
v 320 0 224
v 320 -32 224
v 320 -32 -384
v 320 0 -384
v -64 0 192
v -64 0 224
v -64 128 224
v -64 128 192
v 64 128 224
v 64 0 224
v 64 0 192
v 64 128 192
v 192 0 192
v 192 0 224
v 192 128 224
v 192 128 192
v 736 128 224
v 736 0 224
v 736 0 192
v 736 128 192
v 288 0 -384
v 288 0 192
v 288 128 192
v 288 128 -384
v 320 128 192
v 320 0 192
v 320 0 -384
v 320 128 -384
v -64 0 -384
v -64 0 -352
v -64 128 -352
v -64 128 -384
v 288 128 -352
v 288 0 -352
v 288 0 -384
v 288 128 -384
v -64 0 -352
v -64 0 192
v -64 128 192
v -64 128 -352
v -32 128 192
v -32 0 192
v -32 0 -352
v -32 128 -352
v -64 -32 224
v -64 -32 384
v -64 0 384
v -64 0 224
v 416 0 384
v 416 -32 384
v 416 -32 224
v 416 0 224
v -64 0 224
v -64 0 384
v -64 128 384
v -64 128 224
v -32 128 384
v -32 0 384
v -32 0 224
v -32 128 224
v -64 0 384
v -64 0 416
v -64 128 416
v -64 128 384
v 736 128 416
v 736 0 416
v 736 0 384
v 736 128 384
v 736 -32 -32
v 736 -32 640
v 736 0 640
v 736 0 -32
v 1536 0 640
v 1536 -32 640
v 1536 -32 -32
v 1536 0 -32
v 704 0 416
v 704 0 672
v 704 160 672
v 704 160 416
v 736 160 672
v 736 0 672
v 736 0 416
v 736 160 416
v 736 0 640
v 736 0 672
v 736 224 672
v 736 224 640
v 1568 224 672
v 1568 0 672
v 1568 0 640
v 1568 224 640
v 1536 0 -64
v 1536 0 640
v 1536 224 640
v 1536 224 -64
v 1568 224 640
v 1568 0 640
v 1568 0 -64
v 1568 224 -64
v 704 0 -64
v 704 0 -32
v 704 224 -32
v 704 224 -64
v 1536 224 -32
v 1536 0 -32
v 1536 0 -64
v 1536 224 -64
v 704 0 -32
v 704 0 192
v 704 160 192
v 704 160 -32
v 736 160 192
v 736 0 192
v 736 0 -32
v 736 160 -32
v -64 128 -384
v -64 128 192
v -64 176 192
v -64 176 -384
v 320 176 192
v 320 128 192
v 320 128 -384
v 320 176 -384
v -64 128 192
v -64 128 416
v -64 160 416
v -64 160 192
v 736 160 416
v 736 128 416
v 736 128 192
v 736 160 192
v 736 224 -64
v 736 416 288
v 736 448 288
v 736 256 -64
v 1536 448 288
v 1536 416 288
v 1536 224 -64
v 1536 256 -64
v 736 416 320
v 736 224 672
v 736 256 672
v 736 448 320
v 1536 256 672
v 1536 224 672
v 1536 448 320
v 1536 416 320
v 736 416 288
v 736 416 320
v 736 448 320
v 736 448 288
v 1536 448 320
v 1536 416 320
v 1536 416 288
v 1536 448 288
v 704 160 -64
v 704 160 672
v 704 448 672
v 704 448 -64
v 736 448 672
v 736 160 672
v 736 160 -64
v 736 448 -64
v 1536 224 -64
v 1536 224 672
v 1536 448 672
v 1536 448 -64
v 1568 448 672
v 1568 224 672
v 1568 224 -64
v 1568 448 -64
v 416 -32 224
v 416 -32 384
v 416 0 384
v 416 0 224
v 736 0 384
v 736 -32 384
v 736 -32 224
v 736 0 224
v -32 0 -352
v -32 0 208
v -32 128 208
v -32 128 -352
v 288 128 208
v 288 0 208
v 288 0 -352
v 288 128 -352
v -32 0 208
v -32 0 384
v -32 128 384
v -32 128 208
v 736 128 384
v 736 0 384
v 736 0 208
v 736 128 208

# texture coordinates
vt 1.89453125 -0.1484375
vt -1.07421875 -0.1484375
vt -1.07421875 0.0078125
vt 1.89453125 0.0078125
vt 1.5625 0.0078125
vt -0.3125 0.0078125
vt -0.3125 -0.1484375
vt 1.5625 -0.1484375
vt 1.5625 -1.07421875
vt -0.3125 -1.07421875
vt -0.3125 1.89453125
vt 1.5625 1.89453125
vt -0.75 -0
vt -0.875 -0
vt -0.875 0.5
vt -0.75 0.5
vt 0.25 0.5
vt -0.25 0.5
vt -0.25 -0
vt 0.25 -0
vt 0.25 -0.875
vt -0.25 -0.875
vt -0.25 -0.75
vt 0.25 -0.75
vt 0.625 -0
vt -0.625 -0
vt -0.625 1.25
vt 0.625 1.25
vt -1.875 1.25
vt -2.1875 1.25
vt -2.1875 -0
vt -1.875 -0
vt 2.875 0.5
vt 0.75 0.5
vt 0.75 -0
vt 2.875 -0
vt 2.875 -0.875
vt 0.75 -0.875
vt 0.75 -0.75
vt 2.875 -0.75
vt 7.1875 -0
vt 1.875 -0
vt 1.875 1.25
vt 7.1875 1.25
vt 3.75 -0
vt 3.75 1.25
vt 3.125 1.25
vt 2.8125 1.25
vt 2.8125 -0
vt 3.125 -0
vt 3.125 -1.875
vt 2.8125 -1.875
vt 2.8125 3.75
vt 3.125 3.75
vt 3.7109375 -0
vt 3.3984375 -0
vt 3.3984375 1.25
vt 3.7109375 1.25
vt 2.8125 3.3984375
vt -0.625 3.3984375
vt -0.625 3.7109375
vt 2.8125 3.7109375
vt 3.4375 -0
vt 3.4375 1.25
vt -0.3125 1.25
vt -0.3125 -0
vt -0.3125 -1.875
vt -0.625 -1.875
vt -0.625 3.4375
vt -0.3125 3.4375
vt -0.875 -0.125
vt -1.5 -0.125
vt -1.5 -0
vt 1.625 -0
vt -0.25 -0.125
vt 1.625 -0.125
vt 1.625 -1.5
vt -0.25 -1.5
vt 1.625 -0.875
vt -1.5 0.5
vt -0.125 0.5
vt -0.125 -0
vt -0.125 -1.5
vt -0.125 -0.875
vt -1.625 -0
vt -1.625 0.5
vt 2.875 -1.625
vt -0.25 -1.625
vt 2.875 -1.5
vt 0.125 -0.125
vt -2.5 -0.125
vt -2.5 -0
vt 0.125 -0
vt 6 -0
vt 2.875 -0.125
vt 6 -0.125
vt 6 -2.5
vt 2.875 -2.5
vt 2.875 0.125
vt 6 0.125
vt -2.625 -0
vt -2.625 0.625
vt -1.625 0.625
vt 2.875 0.625
vt 2.75 0.625
vt 2.75 -0
vt 2.875 -2.625
vt 2.75 -2.625
vt 2.75 -1.625
vt -2.625 0.875
vt -2.5 0.875
vt 6.125 0.875
vt 2.875 0.875
vt 6.125 -0
vt 6.125 -2.625
vt 6.125 -2.5
vt 0.25 0.875
vt 6 0.875
vt 5.875 0.875
vt 5.875 -0
vt 5.875 -2.5
vt 5.875 0.25
vt 6 0.25
vt 0.125 0.875
vt 2.75 0.875
vt 2.75 0.125
vt 2.75 0.25
vt -0.75 0.625
vt 0.125 0.625
vt 2.75 -0.75
vt 1.5 0.75
vt -0.75 0.75
vt -0.75 0.9375
vt 1.5 0.9375
vt 1.25 0.9375
vt -0.25 0.9375
vt -0.25 0.75
vt 1.25 0.75
vt 1.25 -0.75
vt -0.25 1.5
vt 1.25 1.5
vt -1.625 0.75
vt -1.625 0.875
vt -0.75 0.875
vt -0.25 0.875
vt 2.875 0.75
vt -1.125 1.625
vt -1.125 1.75
vt 0.25 1
vt 6 1.75
vt 2.875 1.75
vt 2.875 1.625
vt 6 1.625
vt 6 -1.125
vt 2.875 -1.125
vt 2.875 0.25
vt 2.875 1
vt 6 1
vt 0.875 1.625
vt 2.25 0.875
vt 2.25 1
vt 0.875 1.75
vt -6.125 1
vt -3 1
vt -3 0.875
vt -6.125 0.875
vt -3 2.25
vt -6.125 2.25
vt -6.125 1.625
vt -3 1.625
vt -3 1.75
vt -6.125 1.75
vt -1.25 1.625
vt -1.25 1.75
vt 6 -1.25
vt 2.875 -1.25
vt 0.25 0.625
vt -2.625 1.75
vt 0.25 1.75
vt 2.75 1.75
vt 6.125 1.75
vt 6 -2.625
vt 6.125 0.25
vt 2.5625 -0
vt 1.3125 -0
vt 1.3125 -0.125
vt 2.5625 -0.125
vt 2.5625 -1.5
vt 1.3125 -1.5
vt 1.3125 -0.875
vt 2.5625 -0.875
vt 11 -0
vt -6.5 -0
vt -6.5 4
vt 11 4
vt 9 4
vt -1 4
vt -1 -0
vt 9 -0
vt 9 -6.5
vt -1 -6.5
vt -1 11
vt 9 11
vt -12 -0
vt -12 4
vt 23 4
vt 23 -0
vt 23 -12
vt -1 -12
vt 23 -6.5

# face normals
vn -1 0 -0
vn 0 0 1
vn 0 -1 -0
vn 0 1 -0
vn 0 0 -1
vn 1 0 -0
vn 0 -0.87789557291438447 0.47885213068057331
vn 0 0.87789557291438447 -0.47885213068057331
vn 0 0.87789557291438447 0.47885213068057331
vn 0 -0.87789557291438447 -0.47885213068057331

# objects
o entity0_brush0
usemtl poly/weathered_brown_planks_diff_4k
f 1/1/1 2/2/1 3/3/1 4/4/1
usemtl poly/weathered_brown_planks_diff_4k
f 5/5/2 3/6/2 2/7/2 6/8/2
usemtl poly/weathered_brown_planks_diff_4k
f 6/9/3 2/10/3 1/11/3 7/12/3
usemtl poly/weathered_brown_planks_diff_4k
f 8/12/4 4/11/4 3/10/4 5/9/4
usemtl poly/weathered_brown_planks_diff_4k
f 7/8/5 1/7/5 4/6/5 8/5/5
usemtl poly/weathered_brown_planks_diff_4k
f 8/4/6 5/3/6 6/2/6 7/1/6

o entity0_brush1
usemtl paint/plasterwallwhite
f 9/13/1 10/14/1 11/15/1 12/16/1
usemtl paint/plasterwallpink
f 13/17/2 11/18/2 10/19/2 14/20/2
usemtl paint/plasterwallwhite
f 14/21/3 10/22/3 9/23/3 15/24/3
usemtl paint/plasterwallwhite
f 16/24/4 12/23/4 11/22/4 13/21/4
usemtl poly/medieval_blocks_03_diff_4k
f 15/25/5 9/26/5 12/27/5 16/28/5
usemtl poly/medieval_blocks_03_diff_4k
f 16/29/6 13/30/6 14/31/6 15/32/6

o entity0_brush2
usemtl poly/medieval_blocks_03_diff_4k
f 17/32/1 18/31/1 19/30/1 20/29/1
usemtl paint/plasterwallpink
f 21/33/2 19/34/2 18/35/2 22/36/2
usemtl paint/plasterwallwhite
f 22/37/3 18/38/3 17/39/3 23/40/3
usemtl paint/plasterwallwhite
f 24/40/4 20/39/4 19/38/4 21/37/4
usemtl poly/medieval_blocks_03_diff_4k
f 23/41/5 17/42/5 20/43/5 24/44/5
usemtl paint/plasterwallbrown2
f 24/16/6 21/15/6 22/14/6 23/13/6

o entity0_brush3
usemtl poly/medieval_blocks_03_diff_4k
f 25/45/1 26/32/1 27/29/1 28/46/1
usemtl poly/medieval_blocks_03_diff_4k
f 29/47/2 27/48/2 26/49/2 30/50/2
usemtl poly/medieval_blocks_03_diff_4k
f 30/51/3 26/52/3 25/53/3 31/54/3
usemtl poly/medieval_blocks_03_diff_4k
f 32/54/4 28/53/4 27/52/4 29/51/4
usemtl poly/medieval_blocks_03_diff_4k
f 31/50/5 25/49/5 28/48/5 32/47/5
usemtl poly/medieval_blocks_03_diff_4k
f 32/46/6 29/29/6 30/32/6 31/45/6

o entity0_brush4
usemtl poly/medieval_blocks_03_diff_4k
f 33/55/1 34/56/1 35/57/1 36/58/1
usemtl poly/medieval_blocks_03_diff_4k
f 37/48/2 35/27/2 34/26/2 38/49/2
usemtl poly/medieval_blocks_03_diff_4k
f 38/59/3 34/60/3 33/61/3 39/62/3
usemtl poly/medieval_blocks_03_diff_4k
f 40/62/4 36/61/4 35/60/4 37/59/4
usemtl poly/medieval_blocks_03_diff_4k
f 39/49/5 33/26/5 36/27/5 40/48/5
usemtl poly/medieval_blocks_03_diff_4k
f 40/58/6 37/57/6 38/56/6 39/55/6

o entity0_brush5
usemtl poly/medieval_blocks_03_diff_4k
f 41/63/1 42/32/1 43/29/1 44/64/1
usemtl poly/medieval_blocks_03_diff_4k
f 45/65/2 43/27/2 42/26/2 46/66/2
usemtl poly/medieval_blocks_03_diff_4k
f 46/67/3 42/68/3 41/69/3 47/70/3
usemtl poly/medieval_blocks_03_diff_4k
f 48/70/4 44/69/4 43/68/4 45/67/4
usemtl poly/medieval_blocks_03_diff_4k
f 47/66/5 41/26/5 44/27/5 48/65/5
usemtl poly/medieval_blocks_03_diff_4k
f 48/64/6 45/29/6 46/32/6 47/63/6

o entity0_brush6
usemtl carpet/carpetfloorred
f 49/71/1 50/72/1 51/73/1 52/14/1
usemtl carpet/carpetfloorred
f 53/74/2 51/19/2 50/75/2 54/76/2
usemtl carpet/carpetfloorred
f 54/77/3 50/78/3 49/22/3 55/79/3
usemtl carpet/carpetfloorred
f 56/79/4 52/22/4 51/78/4 53/77/4
usemtl carpet/carpetfloorred
f 55/76/5 49/75/5 52/19/5 56/74/5
usemtl carpet/carpetfloorred
f 56/14/6 53/73/6 54/72/6 55/71/6

o entity0_brush7
usemtl paint/plasterwallpink
f 57/14/1 58/73/1 59/80/1 60/15/1
usemtl paint/plasterwallpink
f 61/81/2 59/18/2 58/19/2 62/82/2
usemtl paint/plasterwallpink
f 62/83/3 58/78/3 57/22/3 63/84/3
usemtl paint/plasterwallpink
f 64/84/4 60/22/4 59/78/4 61/83/4
usemtl paint/plasterwallpink
f 63/82/5 57/19/5 60/18/5 64/81/5
usemtl paint/plasterwallpink
f 64/15/6 61/80/6 62/73/6 63/14/6

o entity0_brush8
usemtl paint/plasterwallpink
f 65/73/1 66/85/1 67/86/1 68/80/1
usemtl paint/plasterwallpink
f 69/33/2 67/18/2 66/19/2 70/36/2
usemtl paint/plasterwallpink
f 70/87/3 66/88/3 65/78/3 71/89/3
usemtl paint/plasterwallpink
f 72/89/4 68/78/4 67/88/4 69/87/4
usemtl paint/plasterwallpink
f 71/36/5 65/19/5 68/18/5 72/33/5
usemtl paint/plasterwallbrown2
f 72/80/6 69/86/6 70/85/6 71/73/6

o entity0_brush9
usemtl carpet/carpetfloorwhite
f 73/90/1 74/91/1 75/92/1 76/93/1
usemtl carpet/carpetfloorwhite
f 77/94/2 75/36/2 74/95/2 78/96/2
usemtl carpet/carpetfloorwhite
f 78/97/3 74/98/3 73/99/3 79/100/3
usemtl carpet/carpetfloorwhite
f 80/100/4 76/99/4 75/98/4 77/97/4
usemtl carpet/carpetfloorwhite
f 79/96/5 73/95/5 76/36/5 80/94/5
usemtl carpet/carpetfloorwhite
f 80/93/6 77/92/6 78/91/6 79/90/6

o entity0_brush10
usemtl paint/plasterwallbrown2
f 81/85/1 82/101/1 83/102/1 84/103/1
usemtl paint/plasterwallbrown2
f 85/104/2 83/105/2 82/106/2 86/36/2
usemtl paint/plasterwallbrown2
f 86/107/3 82/108/3 81/109/3 87/87/3
usemtl paint/plasterwallbrown2
f 88/87/4 84/109/4 83/108/4 85/107/4
usemtl paint/plasterwallbrown2
f 87/36/5 81/106/5 84/105/5 88/104/5
usemtl paint/plasterwallbrown2
f 88/103/6 85/102/6 86/101/6 87/85/6

o entity0_brush11
usemtl paint/plasterwallbrown2
f 89/92/1 90/101/1 91/110/1 92/111/1
usemtl paint/plasterwallbrown2
f 93/112/2 91/113/2 90/36/2 94/114/2
usemtl paint/plasterwallbrown2
f 94/115/3 90/107/3 89/98/3 95/116/3
usemtl paint/plasterwallbrown2
f 96/116/4 92/98/4 91/107/4 93/115/4
usemtl paint/plasterwallbrown2
f 95/114/5 89/36/5 92/113/5 96/112/5
usemtl paint/plasterwallbrown2
f 96/111/6 93/110/6 94/101/6 95/92/6

o entity0_brush12
usemtl paint/plasterwallbrown2
f 97/20/1 98/92/1 99/111/1 100/117/1
usemtl paint/plasterwallbrown2
f 101/118/2 99/119/2 98/120/2 102/94/2
usemtl paint/plasterwallbrown2
f 102/97/3 98/121/3 97/122/3 103/123/3
usemtl paint/plasterwallbrown2
f 104/123/4 100/122/4 99/121/4 101/97/4
usemtl paint/plasterwallbrown2
f 103/94/5 97/120/5 100/119/5 104/118/5
usemtl paint/plasterwallbrown2
f 104/117/6 101/111/6 102/92/6 103/20/6

o entity0_brush13
usemtl paint/plasterwallbrown2
f 105/20/1 106/93/1 107/124/1 108/117/1
usemtl paint/plasterwallbrown2
f 109/118/2 107/125/2 106/106/2 110/94/2
usemtl paint/plasterwallbrown2
f 110/100/3 106/126/3 105/127/3 111/123/3
usemtl paint/plasterwallbrown2
f 112/123/4 108/127/4 107/126/4 109/100/4
usemtl paint/plasterwallbrown2
f 111/94/5 105/106/5 108/125/5 112/118/5
usemtl paint/plasterwallbrown2
f 112/117/6 109/124/6 110/93/6 111/20/6

o entity0_brush14
usemtl paint/plasterwallbrown2
f 113/93/1 114/13/1 115/128/1 116/129/1
usemtl paint/plasterwallbrown2
f 117/104/2 115/105/2 114/106/2 118/36/2
usemtl paint/plasterwallbrown2
f 118/40/3 114/130/3 113/126/3 119/99/3
usemtl paint/plasterwallbrown2
f 120/99/4 116/126/4 115/130/4 117/40/4
usemtl paint/plasterwallbrown2
f 119/36/5 113/106/5 116/105/5 120/104/5
usemtl paint/plasterwallbrown2
f 120/129/6 117/128/6 118/13/6 119/93/6

o entity0_brush15
usemtl tile/tilefloor1
f 121/131/1 122/132/1 123/133/1 124/134/1
usemtl tile/tilefloor1
f 125/135/2 123/136/2 122/137/2 126/138/2
usemtl tile/tilefloor1
f 126/139/3 122/23/3 121/140/3 127/141/3
usemtl tile/tilefloor1
f 128/141/4 124/140/4 123/23/4 125/139/4
usemtl tile/tilefloor1
f 127/138/5 121/137/5 124/136/5 128/135/5
usemtl tile/tilefloor1
f 128/134/6 125/133/6 126/132/6 127/131/6

o entity0_brush16
usemtl tile/tilefloor1
f 129/132/1 130/142/1 131/143/1 132/144/1
usemtl tile/tilefloor1
f 133/113/2 131/145/2 130/137/2 134/146/2
usemtl tile/tilefloor1
f 134/87/3 130/88/3 129/23/3 135/40/3
usemtl tile/tilefloor1
f 136/40/4 132/23/4 131/88/4 133/87/4
usemtl tile/tilefloor1
f 135/146/5 129/137/5 132/145/5 136/113/5
usemtl paint/plasterwallbrown2
f 136/144/6 133/143/6 134/142/6 135/132/6

o entity0_brush17
usemtl tile/tilefloor1
f 137/117/1 138/147/1 139/148/1 140/149/1
usemtl tile/tilefloor1
f 141/150/2 139/151/2 138/152/2 142/153/2
usemtl tile/tilefloor1
f 142/154/7 138/155/7 137/156/7 143/123/7
usemtl tile/tilefloor1
f 144/123/8 140/156/8 139/155/8 141/154/8
usemtl tile/tilefloor1
f 143/118/5 137/113/5 140/157/5 144/158/5
usemtl tile/tilefloor1
f 144/149/6 141/148/6 142/147/6 143/117/6

o entity0_brush18
usemtl tile/tilefloor1
f 145/159/1 146/160/1 147/161/1 148/162/1
usemtl tile/tilefloor1
f 149/163/2 147/164/2 146/165/2 150/166/2
usemtl tile/tilefloor1
f 151/166/9 148/165/9 147/167/9 149/168/9
usemtl tile/tilefloor1
f 150/168/10 146/167/10 145/165/10 152/166/10
usemtl tile/tilefloor1
f 152/169/5 145/170/5 148/171/5 151/172/5
usemtl tile/tilefloor1
f 149/161/6 150/160/6 152/159/6 151/162/6

o entity0_brush19
usemtl tile/tilefloor1
f 153/147/1 154/173/1 155/174/1 156/148/1
usemtl tile/tilefloor1
f 157/150/2 155/151/2 154/152/2 158/153/2
usemtl tile/tilefloor1
f 158/175/3 154/176/3 153/155/3 159/154/3
usemtl tile/tilefloor1
f 160/154/4 156/155/4 155/176/4 157/175/4
usemtl tile/tilefloor1
f 159/153/5 153/152/5 156/151/5 160/150/5
usemtl tile/tilefloor1
f 160/148/6 157/174/6 158/173/6 159/147/6

o entity0_brush20
usemtl paint/plasterwallbrown2
f 161/177/1 162/102/1 163/178/1 164/179/1
usemtl paint/plasterwallbrown2
f 165/151/2 163/180/2 162/105/2 166/104/2
usemtl paint/plasterwallbrown2
f 166/107/3 162/108/3 161/127/3 167/156/3
usemtl paint/plasterwallbrown2
f 168/156/4 164/127/4 163/108/4 165/107/4
usemtl paint/plasterwallbrown2
f 167/104/5 161/105/5 164/180/5 168/151/5
usemtl paint/plasterwallbrown2
f 168/179/6 165/178/6 166/102/6 167/177/6

o entity0_brush21
usemtl paint/plasterwallbrown2
f 169/117/1 170/110/1 171/178/1 172/179/1
usemtl paint/plasterwallbrown2
f 173/181/2 171/150/2 170/118/2 174/112/2
usemtl paint/plasterwallbrown2
f 174/115/3 170/182/3 169/123/3 175/183/3
usemtl paint/plasterwallbrown2
f 176/183/4 172/123/4 171/182/4 173/115/4
usemtl paint/plasterwallbrown2
f 175/112/5 169/118/5 172/150/5 176/181/5
usemtl paint/plasterwallbrown2
f 176/179/6 173/178/6 174/110/6 175/117/6

o entity0_brush22
usemtl carpet/carpetfloorred
f 177/71/1 178/72/1 179/73/1 180/14/1
usemtl carpet/carpetfloorred
f 181/184/2 179/185/2 178/186/2 182/187/2
usemtl carpet/carpetfloorred
f 182/188/3 178/189/3 177/190/3 183/191/3
usemtl carpet/carpetfloorred
f 184/191/4 180/190/4 179/189/4 181/188/4
usemtl carpet/carpetfloorred
f 183/187/5 177/186/5 180/185/5 184/184/5
usemtl carpet/carpetfloorred
f 184/14/6 181/73/6 182/72/6 183/71/6

o entity10_brush0
usemtl __TB_empty
f 185/192/1 186/193/1 187/194/1 188/195/1
usemtl __TB_empty
f 189/196/2 187/197/2 186/198/2 190/199/2
usemtl __TB_empty
f 190/200/3 186/201/3 185/202/3 191/203/3
usemtl __TB_empty
f 192/203/4 188/202/4 187/201/4 189/200/4
usemtl __TB_empty
f 191/199/5 185/198/5 188/197/5 192/196/5
usemtl __TB_empty
f 192/195/6 189/194/6 190/193/6 191/192/6

o entity11_brush0
usemtl __TB_empty
f 193/193/1 194/204/1 195/205/1 196/194/1
usemtl __TB_empty
f 197/206/2 195/197/2 194/198/2 198/207/2
usemtl __TB_empty
f 198/208/3 194/209/3 193/201/3 199/210/3
usemtl __TB_empty
f 200/210/4 196/201/4 195/209/4 197/208/4
usemtl __TB_empty
f 199/207/5 193/198/5 196/197/5 200/206/5
usemtl __TB_empty
f 200/194/6 197/205/6 198/204/6 199/193/6

