{
    "asset" : {
        "generator" : "Khronos glTF Blender I/O v1.6.16",
        "version" : "2.0"
    },
    "scene" : 0,
    "scenes" : [
        {
            "name" : "Scene",
            "nodes" : [
                0,
                1,
                22
            ]
        }
    ],
    "nodes" : [
        {
            "name" : "Empty",
            "rotation" : [
                0.5000001192092896,
                0.5,
                -0.5000000596046448,
                0.5
            ],
            "translation" : [
                -2.5499181747436523,
                1.9101500511169434,
                -0.041974544525146484
            ]
        },
        {
            "name" : "Empty.001",
            "rotation" : [
                0.7071068286895752,
                0,
                0,
                0.7071068286895752
            ],
            "scale" : [
                -1,
                1,
                1
            ],
            "translation" : [
                -0.9666297435760498,
                1.9101500511169434,
                0
            ]
        },
        {
            "name" : "Bone.004",
            "rotation" : [
                0.013830318115651608,
                -0.001572279492393136,
                -0.011120245791971684,
                0.9998413920402527
            ],
            "scale" : [
                1,
                1.000000238418579,
                1.0000001192092896
            ],
            "translation" : [
                1.2540970040220145e-08,
                0.24388742446899414,
                -6.040932021278422e-08
            ]
        },
        {
            "children" : [
                2
            ],
            "name" : "Bone.003",
            "rotation" : [
                0.0641169399023056,
                0.00029143362189643085,
                0.00453595956787467,
                0.9979320764541626
            ],
            "scale" : [
                1,
                0.9999999403953552,
                1
            ],
            "translation" : [
                -1.8495954767772105e-10,
                0.8583263158798218,
                7.949478941782218e-08
            ]
        },
        {
            "name" : "Bone.008",
            "rotation" : [
                0.025887681171298027,
                -0.0001772152172634378,
                0.008063073270022869,
                0.9996323585510254
            ],
            "scale" : [
                1,
                0.9999998211860657,
                0.9999999403953552
            ],
            "translation" : [
                -1.2910913937957957e-07,
                0.7850484848022461,
                1.1573424885114036e-08
            ]
        },
        {
            "children" : [
                4
            ],
            "name" : "Bone.007",
            "rotation" : [
                0.14064675569534302,
                -0.06473419070243835,
                -0.13167357444763184,
                0.9791272878646851
            ],
            "scale" : [
                1,
                0.9999998807907104,
                1
            ],
            "translation" : [
                -3.2135719152392994e-07,
                0.7200444936752319,
                4.5072865439976795e-09
            ]
        },
        {
            "children" : [
                5
            ],
            "name" : "Bone.006",
            "rotation" : [
                0.2889513075351715,
                -0.03273209556937218,
                -0.14809471368789673,
                0.9452532529830933
            ],
            "scale" : [
                0.9999997615814209,
                1,
                1.0000001192092896
            ],
            "translation" : [
                -2.149756106462064e-08,
                0.5893425345420837,
                4.578907919494668e-09
            ]
        },
        {
            "children" : [
                6
            ],
            "name" : "Bone.005",
            "rotation" : [
                0.2966983914375305,
                0.18173013627529144,
                0.8038901090621948,
                0.4823949635028839
            ],
            "scale" : [
                0.9999999403953552,
                0.9999999403953552,
                0.9999999403953552
            ],
            "translation" : [
                -0.259281724691391,
                0.62813401222229,
                -0.03190004453063011
            ]
        },
        {
            "name" : "Bone.012",
            "rotation" : [
                0.033087581396102905,
                -0.0005805730470456183,
                0.015150542370975018,
                0.9993375539779663
            ],
            "scale" : [
                0.9999998211860657,
                0.9999998807907104,
                0.9999999403953552
            ],
            "translation" : [
                -2.202432369813323e-08,
                0.8089465498924255,
                -2.2351741790771484e-08
            ]
        },
        {
            "children" : [
                8
            ],
            "name" : "Bone.011",
            "rotation" : [
                0.1659945845603943,
                0.07571437209844589,
                0.11681602895259857,
                0.9762516021728516
            ],
            "translation" : [
                2.7221562959311996e-07,
                0.7018042802810669,
                1.351258660520216e-08
            ]
        },
        {
            "children" : [
                9
            ],
            "name" : "Bone.010",
            "rotation" : [
                0.22974085807800293,
                0.10233737528324127,
                0.02513093873858452,
                0.9675301909446716
            ],
            "scale" : [
                1,
                0.9999999403953552,
                0.9999999403953552
            ],
            "translation" : [
                3.218054018816474e-07,
                0.5558720827102661,
                2.633079532188276e-09
            ]
        },
        {
            "children" : [
                10
            ],
            "name" : "Bone.009",
            "rotation" : [
                0.2859271168708801,
                -0.16863004863262177,
                -0.8081259727478027,
                0.48656144738197327
            ],
            "scale" : [
                1.000000238418579,
                1.0000001192092896,
                1.0000001192092896
            ],
            "translation" : [
                0.2666334807872772,
                0.6207365989685059,
                -0.031899936497211456
            ]
        },
        {
            "children" : [
                3,
                7,
                11
            ],
            "name" : "Bone.002",
            "rotation" : [
                0.08568289875984192,
                -0.03037096932530403,
                -0.007168750278651714,
                0.9958337545394897
            ],
            "scale" : [
                0.9999999403953552,
                1,
                1
            ],
            "translation" : [
                -1.083673484281178e-09,
                0.8235390782356262,
                -2.0329288474840723e-08
            ]
        },
        {
            "children" : [
                12
            ],
            "name" : "Bone.001",
            "rotation" : [
                -0.08558468520641327,
                -1.1877187233721997e-07,
                1.0202488631705364e-08,
                0.9963309168815613
            ],
            "scale" : [
                1,
                0.9999998807907104,
                1
            ],
            "translation" : [
                0,
                0.851749837398529,
                0
            ]
        },
        {
            "name" : "Bone.015",
            "rotation" : [
                0.5694535970687866,
                -0.032200347632169724,
                -0.0686667263507843,
                0.8185173869132996
            ],
            "scale" : [
                1,
                1,
                1.0000001192092896
            ],
            "translation" : [
                8.360925285444409e-10,
                1.5576775074005127,
                -1.3847430579971842e-07
            ]
        },
        {
            "children" : [
                14
            ],
            "name" : "Bone.014",
            "rotation" : [
                -0.014880784787237644,
                -0.0025885861832648516,
                0.04171241074800491,
                0.9990155100822449
            ],
            "scale" : [
                1,
                0.9999998807907104,
                1
            ],
            "translation" : [
                -7.851967964711548e-09,
                1.4664279222488403,
                8.03423372275347e-09
            ]
        },
        {
            "children" : [
                15
            ],
            "name" : "Bone.013",
            "rotation" : [
                -0.007548339199274778,
                0.04467472806572914,
                0.9975086450576782,
                0.05407119542360306
            ],
            "scale" : [
                1.0000041723251343,
                1.000000238418579,
                1.000003457069397
            ],
            "translation" : [
                -0.26372936367988586,
                0.13702529668807983,
                -0.03189998120069504
            ]
        },
        {
            "name" : "Bone.018",
            "rotation" : [
                0.5617048144340515,
                0.03745812550187111,
                0.07042530179023743,
                0.823483407497406
            ],
            "translation" : [
                6.672360797210786e-08,
                1.532776951789856,
                -4.2476074213482207e-08
            ]
        },
        {
            "children" : [
                17
            ],
            "name" : "Bone.017",
            "rotation" : [
                -0.005848624277859926,
                0.003593137487769127,
                -0.03220440819859505,
                0.9994577765464783
            ],
            "scale" : [
                1.0000001192092896,
                1,
                0.9999999403953552
            ],
            "translation" : [
                -4.119391050494414e-08,
                1.4798766374588013,
                -3.292561334689026e-09
            ]
        },
        {
            "children" : [
                18
            ],
            "name" : "Bone.016",
            "rotation" : [
                -0.0005851448513567448,
                0.09289786964654922,
                -0.9945290088653564,
                0.0477675125002861
            ],
            "scale" : [
                1.000005841255188,
                1.0000001192092896,
                1.0000070333480835
            ],
            "translation" : [
                0.3255460262298584,
                0.13516630232334137,
                -0.03970262408256531
            ]
        },
        {
            "children" : [
                13,
                16,
                19
            ],
            "name" : "Bone",
            "rotation" : [
                -5.846412243215582e-09,
                0,
                0,
                1
            ]
        },
        {
            "mesh" : 0,
            "name" : "Cube",
            "skin" : 0
        },
        {
            "children" : [
                21,
                20
            ],
            "name" : "Armature",
            "scale" : [
                0.49434661865234375,
                0.49434661865234375,
                0.49434661865234375
            ],
            "translation" : [
                -0.006911997217684984,
                1.849063754081726,
                0.042796600610017776
            ]
        }
    ],
    "materials" : [
        {
            "doubleSided" : true,
            "name" : "Material.001",
            "pbrMetallicRoughness" : {
                "baseColorTexture" : {
                    "index" : 0
                },
                "metallicFactor" : 0,
                "roughnessFactor" : 0.5
            }
        }
    ],
    "meshes" : [
        {
            "name" : "Cube.002",
            "primitives" : [
                {
                    "attributes" : {
                        "POSITION" : 0,
                        "NORMAL" : 1,
                        "TEXCOORD_0" : 2,
                        "JOINTS_0" : 3,
                        "WEIGHTS_0" : 4
                    },
                    "indices" : 5,
                    "material" : 0
                }
            ]
        }
    ],
    "textures" : [
        {
            "sampler" : 0,
            "source" : 0
        }
    ],
    "images" : [
        {
            "bufferView" : 6,
            "mimeType" : "image/png",
            "name" : "Green"
        }
    ],
    "skins" : [
        {
            "inverseBindMatrices" : 6,
            "joints" : [
                20,
                13,
                12,
                3,
                2,
                7,
                6,
                5,
                4,
                11,
                10,
                9,
                8,
                16,
                15,
                14,
                19,
                18,
                17
            ],
            "name" : "Armature"
        }
    ],
    "accessors" : [
        {
            "bufferView" : 0,
            "componentType" : 5126,
            "count" : 326,
            "max" : [
                1.3265711069107056,
                3.5769124031066895,
                0.24736835062503815
            ],
            "min" : [
                -1.3265711069107056,
                0.2624669075012207,
                -0.2737979292869568
            ],
            "type" : "VEC3"
        },
        {
            "bufferView" : 1,
            "componentType" : 5126,
            "count" : 326,
            "type" : "VEC3"
        },
        {
            "bufferView" : 2,
            "componentType" : 5126,
            "count" : 326,
            "type" : "VEC2"
        },
        {
            "bufferView" : 3,
            "componentType" : 5121,
            "count" : 326,
            "type" : "VEC4"
        },
        {
            "bufferView" : 4,
            "componentType" : 5126,
            "count" : 326,
            "type" : "VEC4"
        },
        {
            "bufferView" : 5,
            "componentType" : 5123,
            "count" : 1821,
            "type" : "SCALAR"
        },
        {
            "bufferView" : 7,
            "componentType" : 5126,
            "count" : 19,
            "type" : "MAT4"
        }
    ],
    "bufferViews" : [
        {
            "buffer" : 0,
            "byteLength" : 3912,
            "byteOffset" : 0
        },
        {
            "buffer" : 0,
            "byteLength" : 3912,
            "byteOffset" : 3912
        },
        {
            "buffer" : 0,
            "byteLength" : 2608,
            "byteOffset" : 7824
        },
        {
            "buffer" : 0,
            "byteLength" : 1304,
            "byteOffset" : 10432
        },
        {
            "buffer" : 0,
            "byteLength" : 5216,
            "byteOffset" : 11736
        },
        {
            "buffer" : 0,
            "byteLength" : 3642,
            "byteOffset" : 16952
        },
        {
            "buffer" : 0,
            "byteLength" : 11794,
            "byteOffset" : 20596
        },
        {
            "buffer" : 0,
            "byteLength" : 1216,
            "byteOffset" : 32392
        }
    ],
    "samplers" : [
        {
            "magFilter" : 9729,
            "minFilter" : 9987
        }
    ],
    "buffers" : [
        {
            "byteLength" : 33608,
            "uri" : "data:application/octet-stream;base64,"
        }
    ]
}
